<svg xmlns="http://www.w3.org/2000/svg" version="1.1" xmlns:xlink="http://www.w3.org/1999/xlink" xmlns:svgjs="http://svgjs.dev/svgjs" width="1440" height="560" preserveAspectRatio="none" viewBox="0 0 1440 560"><g mask="url(&quot;#SvgjsMask1118&quot;)" fill="none"><path d="M 0,23 C 96,75.6 288,279.4 480,286 C 672,292.6 768,15.8 960,56 C 1152,96.2 1344,400.8 1440,487L1440 560L0 560z" fill="rgba(255, 255, 255, 1)"></path><path d="M 0,58 C 144,147.8 432,483.4 720,507 C 1008,530.6 1296,242.2 1440,176L1440 560L0 560z" fill="rgba(255, 255, 255, 1)"></path><path d="M 0,530 C 96,437.6 288,67.2 480,68 C 672,68.8 768,492.2 960,534 C 1152,575.8 1344,328.4 1440,277L1440 560L0 560z" fill="rgba(255, 255, 255, 0)"></path></g><defs><mask id="SvgjsMask1118"><rect width="1440" height="560" fill="#ffffff"></rect></mask></defs></svg>