<svg width="17" height="17" viewBox="0 0 17 17" fill="none" xmlns="http://www.w3.org/2000/svg">
<path fill-rule="evenodd" clip-rule="evenodd" d="M11.7839 0.383789H5.15716C2.464 0.383789 0.272949 2.57484 0.272949 5.268V11.8948C0.272949 14.5879 2.464 16.779 5.15716 16.779H11.7839C14.4771 16.779 16.6681 14.5879 16.6681 11.8948V5.268C16.6681 2.57484 14.4771 0.383789 11.7839 0.383789ZM15.0187 11.8953C15.0187 13.6819 13.5704 15.1302 11.7839 15.1302H5.1571C3.37055 15.1302 1.92224 13.6819 1.92224 11.8953V5.26855C1.92224 3.48197 3.37055 2.03369 5.1571 2.03369H11.7839C13.5704 2.03369 15.0187 3.48197 15.0187 5.26855V11.8953ZM4.22986 8.58215C4.22986 6.24403 6.13209 4.3418 8.47024 4.3418C10.8084 4.3418 12.7106 6.244 12.7106 8.58215C12.7106 10.9203 10.8084 12.8225 8.47024 12.8225C6.13209 12.8225 4.22986 10.9203 4.22986 8.58215ZM8.47029 11.1721C7.0393 11.1721 5.87927 10.012 5.87927 8.58105C5.87927 7.15006 7.03933 5.99003 8.47029 5.99003C9.90129 5.99003 11.0613 7.15006 11.0613 8.58105C11.0613 10.012 9.90126 11.1721 8.47029 11.1721ZM13.7353 4.37058C13.7353 4.93174 13.2803 5.38666 12.7192 5.38666C12.158 5.38666 11.7031 4.93174 11.7031 4.37058C11.7031 3.80941 12.158 3.3545 12.7192 3.3545C13.2803 3.3545 13.7353 3.80941 13.7353 4.37058Z" fill="#A91E38"/>
</svg>
