<svg width="58" height="52" viewBox="0 0 58 52" fill="none" xmlns="http://www.w3.org/2000/svg">
<g id="&#208;&#161;&#208;&#187;&#208;&#190;&#208;&#185; 1">
<path id="Vector" d="M34.8952 36.1695C34.7348 36.1742 34.5782 36.1206 34.4543 36.0186C34.3984 35.9759 34.3532 35.9208 34.3223 35.8576C34.2914 35.7945 34.2756 35.725 34.2762 35.6547V15.992L24.7385 35.8193C24.6836 35.9248 24.5986 36.0118 24.4944 36.0693C24.3902 36.1268 24.2713 36.1522 24.1527 36.1424H23.9896C23.871 36.1522 23.7521 36.1268 23.6479 36.0693C23.5437 36.0118 23.4587 35.9248 23.4038 35.8193L13.9326 16.5038V35.6562C13.9321 35.7284 13.9158 35.7997 13.8848 35.8649C13.8537 35.9302 13.8087 35.9878 13.7529 36.0337C13.6307 36.1389 13.4748 36.1967 13.3135 36.1967C13.1523 36.1967 12.9964 36.1389 12.8742 36.0337C12.8183 35.9878 12.7733 35.9302 12.7423 35.8649C12.7112 35.7997 12.6949 35.7284 12.6945 35.6562V13.8344C12.6967 13.7874 12.708 13.7413 12.7277 13.6985C12.7623 13.573 12.8399 13.4637 12.947 13.3897C13.0541 13.3157 13.1839 13.2818 13.3135 13.2939C13.4323 13.2842 13.5513 13.3098 13.6556 13.3676C13.7598 13.4253 13.8446 13.5127 13.8993 13.6185L24.0545 34.3894L34.0482 13.6442C34.178 13.3754 34.3864 13.2969 34.7276 13.2969H34.8952C35.0606 13.2951 35.2212 13.3524 35.3482 13.4585C35.4079 13.5022 35.4567 13.5592 35.4907 13.625C35.5248 13.6907 35.5432 13.7634 35.5444 13.8375V35.1444H37.237V13.8344C37.2373 13.7621 37.2534 13.6907 37.2842 13.6253C37.3149 13.5598 37.3596 13.5019 37.4151 13.4555L37.5948 13.2939H37.8545C38.0166 13.29 38.1742 13.3477 38.2954 13.4555C38.3506 13.5021 38.3952 13.56 38.4259 13.6255C38.4567 13.6909 38.4729 13.7622 38.4735 13.8344V35.6562C38.4741 35.7265 38.4583 35.796 38.4274 35.8592C38.3965 35.9223 38.3513 35.9774 38.2954 36.0201C38.2647 36.0463 38.2313 36.0691 38.1957 36.088C38.0893 36.1398 37.9728 36.1676 37.8545 36.1695C37.7465 36.178 37.6379 36.178 37.5299 36.1695H34.8952Z" fill="#1A3444"/>
<path id="Vector_2" d="M44.7573 13.2065C44.9171 13.2027 45.0729 13.2563 45.1966 13.3575C45.2525 13.4001 45.2977 13.4552 45.3287 13.5184C45.3596 13.5815 45.3754 13.651 45.3748 13.7213C45.3745 13.7937 45.3584 13.8651 45.3276 13.9305C45.2968 13.996 45.2521 14.0539 45.1966 14.1003C45.0761 14.2082 44.919 14.266 44.7573 14.2619H38.4748V35.2487C38.477 35.3233 38.4619 35.3974 38.4308 35.4652C38.3996 35.5331 38.3532 35.5928 38.2951 35.6397C38.1688 35.7357 38.0145 35.7877 37.8558 35.7877C37.6971 35.7877 37.5428 35.7357 37.4164 35.6397C37.3584 35.5928 37.312 35.5331 37.2808 35.4652C37.2496 35.3974 37.2346 35.3233 37.2368 35.2487V13.7727C37.2402 13.688 37.2662 13.6059 37.3121 13.5347C37.3581 13.4636 37.4222 13.406 37.498 13.368C37.6249 13.2621 37.7855 13.2048 37.9509 13.2065H44.7573ZM40.0103 36.221C39.8468 36.2224 39.6874 36.1692 39.5574 36.07C39.4978 36.0298 39.4489 35.9756 39.415 35.9122C39.381 35.8488 39.363 35.7781 39.3626 35.7062V24.1045C39.3638 24.0309 39.382 23.9585 39.4158 23.893C39.4496 23.8275 39.4981 23.7708 39.5574 23.7271C39.684 23.6205 39.8448 23.5632 40.0103 23.5655C40.1722 23.5606 40.3296 23.6185 40.4497 23.7271C40.5054 23.7731 40.5503 23.8307 40.5813 23.8959C40.6123 23.9611 40.6288 24.0323 40.6294 24.1045V35.143H44.7633C44.9251 35.1381 45.0826 35.1959 45.2027 35.3045C45.2581 35.3506 45.3028 35.4083 45.3336 35.4735C45.3644 35.5387 45.3805 35.6099 45.3808 35.682C45.3814 35.7523 45.3656 35.8218 45.3347 35.885C45.3038 35.9481 45.2586 36.0032 45.2027 36.0459C45.079 36.1471 44.9231 36.2006 44.7633 36.1969L40.0103 36.221ZM46.4876 13.2608C48.4101 13.246 50.2985 13.769 51.9396 14.7707C53.5908 15.771 54.9522 17.1851 55.8893 18.8729C56.8651 20.5955 57.3702 22.5446 57.3539 24.5243C57.3539 26.5656 56.8662 28.7986 55.8893 30.5244C54.9514 32.2113 53.5894 33.6243 51.9381 34.6236C50.297 35.6253 48.4086 36.1482 46.486 36.1334C46.3263 36.1372 46.1704 36.0837 46.0467 35.9825C45.991 35.9366 45.9462 35.8789 45.9154 35.8137C45.8846 35.7484 45.8687 35.6772 45.8687 35.605C45.8687 35.5329 45.8846 35.4616 45.9154 35.3963C45.9462 35.3311 45.991 35.2734 46.0467 35.2275C46.1704 35.1263 46.3263 35.0728 46.486 35.0766C48.1881 35.0873 49.8584 34.6162 51.304 33.7177C52.7809 32.8103 53.9898 31.5263 54.8068 29.9974C55.6629 28.4242 56.0917 26.3663 56.0917 24.5228C56.1047 22.7328 55.6626 20.969 54.8068 19.3968C53.9909 17.8678 52.783 16.5834 51.307 15.6751C49.8614 14.7765 48.1911 14.3054 46.4891 14.3162C46.3266 14.3198 46.1692 14.2602 46.0497 14.1501C45.9941 14.1042 45.9493 14.0465 45.9185 13.9813C45.8877 13.9161 45.8717 13.8448 45.8715 13.7727C45.871 13.7024 45.8867 13.6329 45.9177 13.5697C45.9486 13.5066 45.9938 13.4515 46.0497 13.4088C46.1718 13.3104 46.3247 13.258 46.4815 13.2608H46.4876Z" fill="#1A3444"/>
<g id="&#208;&#164;&#208;&#184;&#208;&#179;&#209;&#131;&#209;&#128;&#208;&#176; 2">
<path id="Vector_3" fill-rule="evenodd" clip-rule="evenodd" d="M41.7861 6.77156C41.9745 6.68229 42.1527 6.57295 42.3176 6.44544C42.3176 6.44544 42.1243 6.57226 41.7861 6.77156ZM27.0757 5.07148C15.6779 0.403047 8.39746 -2.80084 3.59465 3.56164C-0.395861 8.84609 -1.03603 17.1578 1.53523 28.0045C3.84529 37.755 8.66924 44.35 12.3804 47.9148C16.004 51.3874 20.7691 52.5953 23.9141 50.3864C25.4481 49.3068 26.3525 48.3103 27.7597 45.7179C28.541 44.2396 29.1402 42.672 29.5443 41.0495C29.5443 41.0495 24.7385 51.0734 19.2457 48.8765C13.7529 46.6797 7.53383 39.5986 4.9671 26.2183C3.17039 16.8558 4.28163 5.07148 9.63704 3.69903C14.9925 2.32659 22.1325 6.03929 27.0757 7.4057C32.019 8.7721 36.0019 9.19184 38.3361 8.36747C39.5327 7.94246 40.6875 7.40824 41.7861 6.77156C40.3925 7.47062 36.1046 8.77059 27.0757 5.07148Z" fill="#38BCEA"/>
</g>
<g id="&#208;&#164;&#208;&#184;&#208;&#179;&#209;&#131;&#209;&#128;&#208;&#176; 3">
<path id="Vector_4" fill-rule="evenodd" clip-rule="evenodd" d="M49.3215 3.0194C45.8987 0.683678 42.8216 0.781817 40.6701 0.95243C36.6419 1.27101 33.3927 3.14925 33.3927 3.14925C33.3927 3.14925 40.3878 1.12304 45.4714 3.56144C49.9647 5.71145 50.2772 9.46643 50.2772 9.46643C50.2772 9.46643 51.2722 9.68385 52.7821 10.5988C54.2209 11.4745 54.5607 11.9275 54.5607 11.9275C54.5607 11.9275 53.4479 5.8111 49.3215 3.0194Z" fill="#38BCEA"/>
</g>
</g>
</svg>
