<?xml version="1.0" encoding="UTF-8"?> <svg xmlns="http://www.w3.org/2000/svg" width="137" height="39" viewBox="0 0 137 39" fill="none"> <path d="M61.8395 1.9226C59.8039 3.86685 58.5252 5.60233 57.2594 8.17292C54.728 13.288 53.658 19.0164 53.9451 25.7887C54.1277 30.0034 54.1016 30.434 53.6319 31.8172C52.9925 33.6831 53.1099 34.7531 54.0755 35.7318C55.4979 37.141 57.8858 36.6452 58.7209 34.7531C59.1515 33.7745 58.8644 32.7958 57.7161 31.3866C56.4635 29.8207 56.1764 28.9595 55.811 25.3972C55.5761 23.1398 55.6153 18.3379 55.8763 16.2762C56.2547 13.3402 56.9463 10.7435 58.0163 8.21207C59.0863 5.69367 60.2867 3.8799 62.3484 1.67467C62.9356 1.04833 63.3923 0.539433 63.3532 0.539433C63.3271 0.539433 62.6355 1.16577 61.8395 1.9226Z" fill="#F8F8F8"></path> <path d="M69.721 8.83846C65.6498 9.43869 63.1314 11.396 61.9962 14.8278C61.683 15.7673 61.6439 16.0674 61.6439 17.8943C61.6308 19.7863 61.6569 19.982 61.9962 20.9607C63.1836 24.3273 65.6237 26.2846 69.4862 26.9631C71.6131 27.3415 74.3925 27.1327 76.128 26.4934C77.4067 26.0105 77.3545 26.1802 77.3545 22.5918C77.3545 18.625 77.3806 18.5336 78.6594 18.3901C78.8421 18.364 78.9726 18.2857 78.9595 18.2205C78.9334 18.1422 77.9026 18.09 76.1801 18.09C74.4577 18.09 73.4269 18.1422 73.4138 18.2205C73.3877 18.2857 73.5835 18.364 73.8314 18.3901C74.4838 18.4423 74.9927 18.6641 75.1623 18.9903C75.3842 19.3949 75.4755 24.6926 75.2667 25.1885C75.0319 25.7757 74.2881 26.0236 72.6179 26.0888C70.4518 26.1802 69.1991 25.854 67.4767 24.784C63.7578 22.4613 62.4268 16.746 64.6581 12.6617C65.3367 11.396 66.8503 10.313 68.5597 9.8693C69.6819 9.58223 72.2264 9.60833 73.466 9.9215C75.7104 10.4956 76.6238 11.2916 76.8978 12.8966C76.95 13.2098 77.0283 13.4577 77.0936 13.4577C77.2501 13.4577 77.3415 12.6878 77.3806 10.9784L77.4198 9.47784L76.7021 9.37345C76.3106 9.32126 75.4886 9.19077 74.8753 9.07333C73.7792 8.8776 70.4909 8.72102 69.721 8.83846Z" fill="#F8F8F8"></path> <path d="M7.73953 9.09929C7.596 9.12539 7.07405 9.25588 6.56515 9.36027C2.37652 10.3128 -0.220175 14.0056 0.0147018 18.677C0.119091 20.7909 0.875916 22.8004 2.14164 24.2619C3.23773 25.5407 5.26028 26.6237 7.47856 27.1065C8.84867 27.4066 11.8107 27.4066 13.1026 27.1196C14.4074 26.8194 15.4774 26.4019 15.634 26.1148C15.7123 25.9713 15.7645 24.6142 15.7645 22.8918C15.7645 19.0294 15.8297 18.8206 16.978 18.6118C18.1002 18.403 17.2912 18.2856 14.5901 18.2856C11.8499 18.2856 10.9626 18.4161 12.3718 18.5987C12.7633 18.6509 13.1547 18.8075 13.3766 18.9902L13.7419 19.3034L13.7811 22.2915C13.8202 25.1231 13.8202 25.2927 13.5593 25.6059C13.1678 26.1148 12.2935 26.3105 10.4798 26.2975C9.1227 26.2975 8.77038 26.2453 7.87002 25.9321C4.17724 24.6664 2.0503 21.4956 2.0503 17.3069C2.0503 13.4837 3.65529 11.0696 6.82613 10.1171C7.87002 9.80392 10.6233 9.79087 11.889 10.104C12.8677 10.352 13.9768 10.8609 14.4335 11.2915C14.8511 11.6568 15.2164 12.4006 15.3208 13.0531C15.373 13.3662 15.4644 13.575 15.5557 13.5489C15.7645 13.4837 15.908 9.77783 15.7123 9.64734C15.634 9.59514 15.3339 9.54295 15.0468 9.54295C14.7597 9.5299 14.1204 9.45161 13.6115 9.33417C12.7241 9.15149 8.28758 8.96881 7.73953 9.09929Z" fill="#F8F8F8"></path> <path d="M103.217 11.5266C103.152 11.6179 101.899 14.7757 100.438 18.5468C97.2928 26.65 97.2014 26.7936 95.9749 26.1542C95.0223 25.6714 93.9393 24.5361 91.4209 21.3783L90.2726 19.956L91.0555 19.0948C93.1041 16.8635 93.2999 14.5017 91.5774 12.8836C90.5596 11.9311 90.1551 11.8528 85.8752 11.7875C83.5394 11.7614 82.1824 11.7875 82.1824 11.8658C82.1824 11.9311 82.4042 12.0355 82.6782 12.0746C83.5003 12.2312 83.5916 12.2834 83.7352 12.701C83.9179 13.2229 83.9309 24.3013 83.7482 25.3973C83.6047 26.2586 83.3959 26.5065 82.7957 26.5065C82.5738 26.5065 82.4433 26.5717 82.4694 26.6631C82.5477 26.8718 87.5584 26.8979 87.6237 26.6892C87.6498 26.5978 87.4149 26.5195 87.0104 26.4804C86.5537 26.4282 86.2405 26.3238 86.0578 26.1281C85.7838 25.8671 85.7708 25.7105 85.7316 23.2965C85.7055 21.8872 85.7055 20.6737 85.7447 20.5954C85.7838 20.478 86.2275 20.4519 87.2453 20.478L88.6806 20.5171L89.6332 21.7829C91.1077 23.7532 92.5561 25.5148 93.0389 25.9193C94.0175 26.7414 94.3829 26.8197 97.358 26.8327C100.242 26.8457 100.829 26.7414 99.5241 26.4543C99.3284 26.4151 99.1457 26.2977 99.1065 26.1803C99.0022 25.9193 99.2762 24.9145 99.9939 22.9442L100.607 21.287L103.152 21.3131L105.696 21.3522L106.688 23.7924C107.64 26.1411 107.666 26.2455 107.445 26.4804C107.223 26.7283 107.262 26.7414 109.167 26.8327C111.033 26.924 111.672 26.8718 111.672 26.65C111.672 26.5848 111.398 26.5065 111.072 26.4673C110.341 26.389 109.898 26.0759 109.428 25.3191C109.232 25.0059 107.927 21.9525 106.544 18.5468C103.439 10.9524 103.621 11.37 103.478 11.37C103.413 11.37 103.295 11.4483 103.217 11.5266ZM89.1112 12.8836C89.4766 13.0924 89.9203 13.4317 90.0899 13.6535C91.3817 15.3498 91.0033 18.7686 89.4505 19.4993C88.9155 19.7603 86.9843 19.7994 86.1883 19.5776L85.7055 19.4471L85.7316 16.0284L85.7708 12.6096L86.1622 12.5183C86.3841 12.4661 86.9712 12.453 87.4932 12.4791C88.2239 12.5183 88.5893 12.6096 89.1112 12.8836ZM103.256 14.854C103.765 16.1458 105.279 20.2823 105.279 20.3736C105.279 20.4519 104.43 20.5041 103.126 20.5041C101.938 20.5041 100.973 20.4649 100.973 20.4127C100.973 20.1648 102.982 14.6322 103.06 14.6322C103.126 14.6322 103.204 14.7366 103.256 14.854Z" fill="#F8F8F8"></path> <path d="M124.408 11.6049C124.382 11.6571 124.251 12.1007 124.147 12.5966C123.808 14.045 123.925 14.593 124.369 13.6535C124.76 12.8314 125.034 12.7531 127.487 12.7009L129.68 12.6488L129.667 16.994C129.667 19.3949 129.614 22.3961 129.562 23.6749C129.471 26.2064 129.432 26.3238 128.649 26.4934C128.414 26.5326 128.244 26.6239 128.27 26.6892C128.336 26.8718 133.359 26.8718 133.425 26.6892C133.451 26.5978 133.216 26.5195 132.811 26.4804C132.355 26.4282 132.041 26.3238 131.859 26.1281C131.572 25.854 131.572 25.8149 131.533 19.2384L131.493 12.6357L133.425 12.7009C135.982 12.7792 136.595 13.0402 136.595 14.045C136.595 14.2668 136.661 14.3712 136.765 14.3451C136.869 14.3059 136.935 13.8884 136.961 12.988L137 11.6962H131.219C128.036 11.6962 125.217 11.644 124.956 11.5918C124.695 11.5396 124.447 11.5396 124.408 11.6049Z" fill="#F8F8F8"></path> <path d="M39.7089 11.7744C37.9343 12.0223 36.3293 12.8574 35.1158 14.1493C33.7196 15.6499 32.9497 17.5419 32.9497 19.5253C32.9497 20.8824 33.1585 21.7436 33.8109 23.1137C35.0766 25.8018 37.6472 27.2763 41.0269 27.2893C45.5287 27.2893 48.9213 24.1576 49.2475 19.6819C49.378 17.8029 48.6995 15.6368 47.5512 14.2928C46.4421 13.001 44.4587 12.0223 42.3839 11.7744C41.1443 11.6178 40.8311 11.6178 39.7089 11.7744ZM42.4492 12.6095C44.6674 13.1967 46.2333 14.8539 46.8988 17.3723C47.1728 18.4031 47.1989 20.7519 46.964 21.8741C46.5726 23.6487 45.5156 25.1885 44.2368 25.8409C41.8489 27.0675 38.8216 26.5064 36.9948 24.5099C35.7291 23.1398 35.0766 21.2347 35.0766 18.9381C35.0766 16.8503 35.5855 15.3367 36.6816 14.1493C38.0126 12.7009 40.3744 12.0745 42.4492 12.6095Z" fill="#F8F8F8"></path> <path d="M117.192 11.7222C113.056 11.7613 111.96 11.8657 113.212 12.0745C114.034 12.2311 114.126 12.2833 114.269 12.7008C114.452 13.2358 114.465 24.4968 114.282 25.4755C114.139 26.2584 113.904 26.5063 113.33 26.5063C113.108 26.5063 112.977 26.5716 113.004 26.6629C113.082 26.8848 118.093 26.8978 118.171 26.6629C118.197 26.5716 118.093 26.5063 117.897 26.5063C117.727 26.5063 117.388 26.4672 117.153 26.4281C116.435 26.2845 116.37 25.9192 116.37 22.3177V19.1599L118.21 19.2513C119.215 19.3035 120.18 19.4079 120.337 19.4861C120.663 19.6297 120.937 20.0994 120.937 20.5039C120.937 20.8693 121.185 20.9476 121.25 20.6083C121.289 20.4387 121.342 19.8646 121.368 19.3296C121.407 18.7946 121.472 18.2465 121.524 18.116C121.59 17.9594 121.55 17.8942 121.407 17.8942C121.289 17.8942 121.198 17.9464 121.198 17.9986C121.198 18.2987 120.415 18.4162 118.458 18.4162H116.37V15.5454V12.6747H118.432C120.246 12.6747 120.533 12.7008 120.898 12.9357C121.224 13.1314 121.342 13.3141 121.407 13.7186C121.537 14.5537 121.772 14.2536 121.877 13.1184C121.916 12.5573 121.981 12.0092 122.007 11.9048C122.059 11.67 122.49 11.683 117.192 11.7222Z" fill="#F8F8F8"></path> <path d="M28.9439 11.9049C28.696 11.9702 26.7909 12.0224 24.7031 12.0093C20.1621 12.0093 20.5927 11.9963 20.5927 12.1398C20.5927 12.192 20.8668 12.2833 21.206 12.3225C22.3674 12.453 22.3021 12.0485 22.263 19.5123C22.2369 24.4056 22.1847 26.115 22.0672 26.3368C21.9628 26.5195 21.7149 26.65 21.3757 26.7022C21.0886 26.7543 20.8537 26.8326 20.8537 26.8848C20.8537 27.0023 28.9439 27.1719 29.3354 27.0675C29.4658 27.0284 29.6485 26.8196 29.7138 26.5978C29.9095 26.0497 30.053 24.4186 29.9095 24.4186C29.8443 24.4186 29.6877 24.7187 29.5572 25.0841C29.2179 26.0236 28.709 26.2324 26.817 26.2454C25.3033 26.2454 24.6378 26.0758 24.3899 25.6191C24.2986 25.4495 24.2464 24.262 24.2464 22.383V19.421L26.0601 19.4862C28.1088 19.5515 28.5524 19.708 28.5524 20.3474C28.5524 20.5432 28.6046 20.7911 28.6829 20.8955C28.8395 21.1565 28.9048 20.9607 28.9961 19.7863C29.0483 19.2774 29.1135 18.6772 29.1657 18.4293L29.244 17.9856L28.8134 18.2857C28.422 18.5728 28.2262 18.5989 26.3081 18.6511L24.2464 18.7163V15.7412V12.7792L26.0471 12.8314C28.3045 12.9097 28.6438 13.0271 28.8395 13.797C29.0091 14.4233 29.1657 14.5277 29.2571 14.071C29.3484 13.6665 29.4919 11.7614 29.4398 11.7744C29.4267 11.7875 29.1918 11.8397 28.9439 11.9049Z" fill="#F8F8F8"></path> <path d="M40.8181 30.695C26.4123 30.8124 6.52612 31.0865 3.49883 31.1908C1.1892 31.2691 1.29359 31.2691 6.10857 31.3605C11.2237 31.4649 27.391 31.6606 42.136 31.8041L50.3176 31.8824L50.2523 32.9133C50.0827 35.2751 51.2962 37.389 53.384 38.4198C57.2986 40.338 61.8526 37.2454 61.5395 32.8741L61.4742 31.9868H65.1409C74.9535 31.9738 110.824 31.7128 117.805 31.5954C133.594 31.3474 136.048 31.2822 134.182 31.1908C129.066 30.9168 94.2786 30.5645 73.4138 30.5515H59.3603L59.7126 31.2952C60.0258 31.9607 60.0649 32.2086 60.0649 33.3569C60.0649 34.5574 60.0389 34.714 59.6865 35.3534C58.8775 36.8148 57.4683 37.65 55.8241 37.663C54.9629 37.663 54.715 37.5978 53.9712 37.2324C52.9143 36.7104 52.1574 35.9014 51.766 34.8706C51.4006 33.8919 51.4528 32.1956 51.8834 31.3735C52.2357 30.708 52.2357 30.5384 51.9487 30.5776C51.8182 30.5906 46.8075 30.6428 40.8181 30.695Z" fill="#F8F8F8"></path> </svg> 